<svg width="21" height="17" viewBox="0 0 21 17" fill="none" xmlns="http://www.w3.org/2000/svg">
<path d="M0 14.4375C0 15.3867 0.738281 16.125 1.6875 16.125H18.5625C19.4766 16.125 20.25 15.3867 20.25 14.4375V8.25H0V14.4375ZM6.75 12.0469C6.75 11.8359 6.92578 11.625 7.17188 11.625H11.9531C12.1641 11.625 12.375 11.8359 12.375 12.0469V13.4531C12.375 13.6992 12.1641 13.875 11.9531 13.875H7.17188C6.92578 13.875 6.75 13.6992 6.75 13.4531V12.0469ZM2.25 12.0469C2.25 11.8359 2.42578 11.625 2.67188 11.625H5.20312C5.41406 11.625 5.625 11.8359 5.625 12.0469V13.4531C5.625 13.6992 5.41406 13.875 5.20312 13.875H2.67188C2.42578 13.875 2.25 13.6992 2.25 13.4531V12.0469ZM20.25 2.0625C20.25 1.14844 19.4766 0.375 18.5625 0.375H1.6875C0.738281 0.375 0 1.14844 0 2.0625V3.75H20.25V2.0625Z" fill="url(#paint0_linear_54_209)"/>
<defs>
<linearGradient id="paint0_linear_54_209" x1="0" y1="0.375" x2="22.1458" y2="2.09702" gradientUnits="userSpaceOnUse">
<stop stop-color="#133FDB"/>
<stop offset="1" stop-color="#B7004D" stop-opacity="0.3"/>
</linearGradient>
</defs>
</svg>
