<svg width="21" height="19" viewBox="0 0 21 19" fill="none" xmlns="http://www.w3.org/2000/svg">
<path d="M2.8125 12.625H0.5625C0.246094 12.625 0 12.9062 0 13.1875V17.6875C0 18.0039 0.246094 18.25 0.5625 18.25H2.8125C3.09375 18.25 3.375 18.0039 3.375 17.6875V13.1875C3.375 12.9062 3.09375 12.625 2.8125 12.625ZM2.25 17.125H1.125V13.75H2.25V17.125ZM19.6875 7H17.4375C17.1211 7 16.875 7.28125 16.875 7.5625V17.6875C16.875 18.0039 17.1211 18.25 17.4375 18.25H19.6875C19.9688 18.25 20.25 18.0039 20.25 17.6875V7.5625C20.25 7.28125 19.9688 7 19.6875 7ZM19.125 17.125H18V8.125H19.125V17.125ZM17.6484 3.37891C17.9297 3.55469 18.2109 3.625 18.5625 3.625C19.4766 3.625 20.25 2.88672 20.25 1.9375C20.25 1.02344 19.4766 0.25 18.5625 0.25C17.6133 0.25 16.875 1.02344 16.875 1.9375C16.875 2.14844 16.9102 2.32422 16.9453 2.5L13.8164 5.03125C13.5352 4.85547 13.2539 4.75 12.9375 4.75C12.5859 4.75 12.3047 4.85547 12.0234 5.03125L8.89453 2.5C8.92969 2.32422 9 2.14844 9 1.9375C9 1.02344 8.22656 0.25 7.3125 0.25C6.36328 0.25 5.625 1.02344 5.625 1.9375C5.625 2.21875 5.66016 2.46484 5.76562 2.67578L2.39062 6.05078C2.17969 5.94531 1.93359 5.875 1.6875 5.875C0.738281 5.875 0 6.64844 0 7.5625C0 8.51172 0.738281 9.25 1.6875 9.25C2.60156 9.25 3.375 8.51172 3.375 7.5625C3.375 7.31641 3.30469 7.07031 3.19922 6.85938L6.57422 3.48438C6.78516 3.58984 7.03125 3.625 7.3125 3.625C7.62891 3.625 7.91016 3.55469 8.19141 3.37891L11.3203 5.91016C11.2852 6.08594 11.25 6.26172 11.25 6.4375C11.25 7.38672 11.9883 8.125 12.9375 8.125C13.8516 8.125 14.625 7.38672 14.625 6.4375C14.625 6.26172 14.5547 6.08594 14.5195 5.91016L17.6484 3.37891ZM18.5625 1.375C18.8438 1.375 19.125 1.65625 19.125 1.9375C19.125 2.25391 18.8438 2.5 18.5625 2.5C18.2461 2.5 18 2.25391 18 1.9375C18 1.65625 18.2461 1.375 18.5625 1.375ZM1.6875 8.125C1.37109 8.125 1.125 7.87891 1.125 7.5625C1.125 7.28125 1.37109 7 1.6875 7C1.96875 7 2.25 7.28125 2.25 7.5625C2.25 7.87891 1.96875 8.125 1.6875 8.125ZM7.3125 2.5C6.99609 2.5 6.75 2.25391 6.75 1.9375C6.75 1.65625 6.99609 1.375 7.3125 1.375C7.59375 1.375 7.875 1.65625 7.875 1.9375C7.875 2.25391 7.59375 2.5 7.3125 2.5ZM12.9375 7C12.6211 7 12.375 6.75391 12.375 6.4375C12.375 6.15625 12.6211 5.875 12.9375 5.875C13.2188 5.875 13.5 6.15625 13.5 6.4375C13.5 6.75391 13.2188 7 12.9375 7ZM8.4375 7H6.1875C5.87109 7 5.625 7.28125 5.625 7.5625V17.6875C5.625 18.0039 5.87109 18.25 6.1875 18.25H8.4375C8.71875 18.25 9 18.0039 9 17.6875V7.5625C9 7.28125 8.71875 7 8.4375 7ZM7.875 17.125H6.75V8.125H7.875V17.125ZM14.0625 11.5H11.8125C11.4961 11.5 11.25 11.7812 11.25 12.0625V17.6875C11.25 18.0039 11.4961 18.25 11.8125 18.25H14.0625C14.3438 18.25 14.625 18.0039 14.625 17.6875V12.0625C14.625 11.7812 14.3438 11.5 14.0625 11.5ZM13.5 17.125H12.375V12.625H13.5V17.125Z" fill="#818181"/>
</svg>
