<svg width="21" height="19" viewBox="0 0 21 19" fill="none" xmlns="http://www.w3.org/2000/svg">
<path d="M17.9297 3.51953C18.1406 3.58984 18.3164 3.625 18.5625 3.625C19.4766 3.625 20.25 2.88672 20.25 1.9375C20.25 1.02344 19.4766 0.25 18.5625 0.25C17.6133 0.25 16.875 1.02344 16.875 1.9375C16.875 2.04297 16.875 2.11328 16.875 2.21875L13.5352 4.89062C13.3242 4.82031 13.1484 4.75 12.9023 4.75C12.6914 4.75 12.5156 4.82031 12.3047 4.89062L8.96484 2.21875C8.96484 2.11328 9 2.04297 9 1.9375C9 1.02344 8.22656 0.25 7.3125 0.25C6.36328 0.25 5.625 1.02344 5.625 1.9375C5.625 2.11328 5.625 2.25391 5.66016 2.39453L2.10938 5.94531C1.96875 5.91016 1.82812 5.875 1.6875 5.875C0.738281 5.875 0 6.64844 0 7.5625C0 8.51172 0.738281 9.25 1.6875 9.25C2.60156 9.25 3.375 8.51172 3.375 7.5625C3.375 7.42188 3.33984 7.28125 3.30469 7.14062L6.85547 3.58984C6.99609 3.625 7.13672 3.625 7.3125 3.625C7.52344 3.625 7.69922 3.58984 7.91016 3.51953L11.25 6.19141C11.25 6.29688 11.25 6.36719 11.25 6.4375C11.25 7.38672 11.9883 8.125 12.9375 8.125C13.8516 8.125 14.625 7.38672 14.625 6.4375C14.625 6.36719 14.5898 6.29688 14.5898 6.19141L17.9297 3.51953ZM14.0625 11.5H11.8125C11.4961 11.5 11.25 11.7812 11.25 12.0625V17.6875C11.25 18.0039 11.4961 18.25 11.8125 18.25H14.0625C14.3438 18.25 14.625 18.0039 14.625 17.6875V12.0625C14.625 11.7812 14.3438 11.5 14.0625 11.5ZM19.6875 7H17.4375C17.1211 7 16.875 7.28125 16.875 7.5625V17.6875C16.875 18.0039 17.1211 18.25 17.4375 18.25H19.6875C19.9688 18.25 20.25 18.0039 20.25 17.6875V7.5625C20.25 7.28125 19.9688 7 19.6875 7ZM8.4375 7H6.1875C5.87109 7 5.625 7.28125 5.625 7.5625V17.6875C5.625 18.0039 5.87109 18.25 6.1875 18.25H8.4375C8.71875 18.25 9 18.0039 9 17.6875V7.5625C9 7.28125 8.71875 7 8.4375 7ZM2.8125 12.625H0.5625C0.246094 12.625 0 12.9062 0 13.1875V17.6875C0 18.0039 0.246094 18.25 0.5625 18.25H2.8125C3.09375 18.25 3.375 18.0039 3.375 17.6875V13.1875C3.375 12.9062 3.09375 12.625 2.8125 12.625Z" fill="url(#paint0_linear_54_95)"/>
<defs>
<linearGradient id="paint0_linear_54_95" x1="0" y1="0.25" x2="22.1771" y2="1.75889" gradientUnits="userSpaceOnUse">
<stop stop-color="#133FDB"/>
<stop offset="1" stop-color="#B7004D" stop-opacity="0.3"/>
</linearGradient>
</defs>
</svg>
