<svg width="18" height="19" viewBox="0 0 18 19" fill="none" xmlns="http://www.w3.org/2000/svg">
<path d="M16.3125 0.425769L0.562542 9.49608C-0.246052 9.95311 -0.175739 11.1484 0.668011 11.5L5.62504 13.5391V17.125C5.62504 18.2148 6.92582 18.6719 7.59379 17.8633L9.73832 15.2617L14.168 17.0898C14.836 17.3711 15.6094 16.9492 15.7149 16.2109L17.9649 1.55077C18.1055 0.636707 17.1211 -0.0664182 16.3125 0.425769ZM6.75004 17.125V14.0312L8.64848 14.8047L6.75004 17.125ZM14.625 16.0703L7.3477 13.0469L14.3789 4.78514C14.5547 4.57421 14.2735 4.29296 14.0625 4.46874L5.0977 12.1328L1.12504 10.4805L16.875 1.37499L14.625 16.0703Z" fill="#818181"/>
</svg>
