<svg width="21" height="17" viewBox="0 0 21 17" fill="none" xmlns="http://www.w3.org/2000/svg">
<path d="M18.5625 0.375H1.6875C0.738281 0.375 0 1.14844 0 2.0625V14.4375C0 15.3867 0.738281 16.125 1.6875 16.125H18.5625C19.4766 16.125 20.25 15.3867 20.25 14.4375V2.0625C20.25 1.14844 19.4766 0.375 18.5625 0.375ZM1.6875 1.5H18.5625C18.8438 1.5 19.125 1.78125 19.125 2.0625V3.75H1.125V2.0625C1.125 1.78125 1.37109 1.5 1.6875 1.5ZM18.5625 15H1.6875C1.37109 15 1.125 14.7539 1.125 14.4375V7.125H19.125V14.4375C19.125 14.7539 18.8438 15 18.5625 15ZM6.75 12.0469C6.75 11.8359 6.53906 11.625 6.32812 11.625H3.79688C3.55078 11.625 3.375 11.8359 3.375 12.0469V12.3281C3.375 12.5742 3.55078 12.75 3.79688 12.75H6.32812C6.53906 12.75 6.75 12.5742 6.75 12.3281V12.0469ZM13.5 12.0469C13.5 11.8359 13.2891 11.625 13.0781 11.625H8.29688C8.05078 11.625 7.875 11.8359 7.875 12.0469V12.3281C7.875 12.5742 8.05078 12.75 8.29688 12.75H13.0781C13.2891 12.75 13.5 12.5742 13.5 12.3281V12.0469Z" fill="#818181"/>
</svg>
